PathFileType	4	(X/Y/Z)	 s03c0302.trc
DataRate	CameraRate	NumFrames	NumMarkers	Units	OrigDataRate	OrigDataStartFrame	OrigNumFrames
200	200	4	52	mm	200	1251	2000
Frame#	Time	racr			lacr			c7			jug			rlel			rdr			llel			ldr			s2			lic			ric			lasi			rasi			rpsi			lpsi			rgt			lgt			rth1			rth2			rth3			rth4			rlfc			rmfc			rsh1			rsh2			rsh3			rsh4			rlmal			rmmal			rcal			rtoe			rmt5			rmt1			lth1			lth2			lth4			lth3			llfc			lmfc			lsh1			lsh2			lsh3			lsh4			llmal			lmmal			lcal			ltoe			lmt1			lmt5			SBIKE			LBIKE			RBIKE			
		X1	Y1	Z1	X2	Y2	Z2	X3	Y3	Z3	X4	Y4	Z4	X5	Y5	Z5	X6	Y6	Z6	X7	Y7	Z7	X8	Y8	Z8	X9	Y9	Z9	X10	Y10	Z10	X11	Y11	Z11	X12	Y12	Z12	X13	Y13	Z13	X14	Y14	Z14	X15	Y15	Z15	X16	Y16	Z16	X17	Y17	Z17	X18	Y18	Z18	X19	Y19	Z19	X20	Y20	Z20	X21	Y21	Z21	X22	Y22	Z22	X23	Y23	Z23	X24	Y24	Z24	X25	Y25	Z25	X26	Y26	Z26	X27	Y27	Z27	X28	Y28	Z28	X29	Y29	Z29	X30	Y30	Z30	X31	Y31	Z31	X32	Y32	Z32	X33	Y33	Z33	X34	Y34	Z34	X35	Y35	Z35	X36	Y36	Z36	X37	Y37	Z37	X38	Y38	Z38	X39	Y39	Z39	X40	Y40	Z40	X41	Y41	Z41	X42	Y42	Z42	X43	Y43	Z43	X44	Y44	Z44	X45	Y45	Z45	X46	Y46	Z46	X47	Y47	Z47	X48	Y48	Z48	X49	Y49	Z49	X50	Y50	Z50	X51	Y51	Z51	X52	Y52	Z52	
1251	6.2550	766.615615	1403.867042	-58.179934	766.711829	1430.584294	-370.373723	721.629492	1505.205659	-209.232925	698.449250	1331.065568	-217.336400	616.796799	1177.141149	67.929653	746.968185	948.869348	-28.674442	667.970285	1191.495240	-493.203334	761.001364	924.556192	-408.082734	161.508915	1297.385204	-221.863650	342.813423	1311.792850	-398.813789	324.981225	1298.326951	-31.290572	351.325847	1236.710310	-359.259946	344.836512	1224.497570	-79.066964	192.716625	1342.746523	-170.838256	201.546302	1345.744078	-253.182858	260.412663	1194.606178	-27.114158	276.970147	1210.820109	-424.831090	334.663961	1044.361274	-15.802938	400.222522	984.261105	-19.711861	429.267612	904.336614	-30.261206	430.271123	1004.647385	-27.593290	479.934701	787.620514	-63.630649	485.429516	775.003776	-180.591146	416.901019	631.965725	-38.177495	406.110376	544.553181	-53.081259	352.684809	474.218259	-55.824221	435.006934	536.341034	-77.508623	291.531212	358.012344	-73.550882	318.726356	363.630857	-159.322436	222.489715	323.143622	-108.734568	529.134456	262.299854	-109.901204	408.891995	270.745010	-38.703971	437.018408	281.179354	-152.969455	354.985299	1079.254279	-454.016163	416.654088	1018.429453	-463.189302	447.048351	1035.224133	-453.663224	439.165967	933.191489	-473.898301	504.161346	818.381877	-472.114247	506.086347	797.841892	-345.246104	357.650098	717.850825	-483.976318	310.574454	650.492519	-461.921977	229.062911	613.172707	-447.380786	334.577494	626.075651	-442.329706	129.907546	543.015362	-420.838318	NaN	NaN	NaN	66.452383	572.356748	-371.399761	201.938055	296.077679	-349.108932	144.878902	371.091245	-302.380458	127.077201	384.068845	-429.470138	-213.101386	946.340951	-229.479458	-5.917133	84.139522	-435.126411	-11.460012	81.250127	-34.935920	
1252	6.2600	768.986273	1400.035142	-60.270351	765.791244	1429.471114	-372.700372	722.434684	1502.938975	-210.143501	699.502967	1328.883923	-219.455172	618.179296	1175.425425	68.058720	746.944958	947.385558	-29.226363	667.852911	1189.590431	-494.640605	761.185602	923.871953	-408.250066	161.405906	1295.461758	-221.485380	343.165291	1309.813154	-397.651202	326.250447	1293.982306	-30.549326	351.522538	1235.011871	-358.126136	345.760697	1220.381991	-78.192601	193.342261	1339.996919	-169.156620	201.788377	1343.646993	-251.668155	260.064452	1190.519864	-26.633361	278.087197	1210.244984	-424.432269	331.457222	1039.213051	-16.067293	395.546718	977.583168	-20.306970	422.838523	897.329260	-31.453109	427.117510	997.556653	-26.996309	472.344108	780.490796	-64.822951	477.953798	768.477857	-181.408618	410.379815	624.137797	-38.514052	400.692471	536.488607	-52.944493	348.108186	465.472610	-55.433783	429.758664	528.525633	-77.289813	288.245107	348.467083	-73.066177	314.983784	354.189523	-158.592321	219.073332	314.473201	-107.836593	525.099822	250.368336	-110.570575	405.220285	260.100496	-38.485966	433.265301	270.829122	-152.868800	357.395818	1080.318514	-455.460678	420.372634	1020.955399	-464.899815	450.421471	1038.099360	-454.599447	444.694318	936.213961	-476.458711	509.901648	823.234358	-475.140691	515.584161	801.665563	-345.911722	361.351953	724.964480	-486.340875	313.090886	658.404898	-463.945906	230.961562	622.554510	-448.924021	336.815114	633.323947	-444.332194	130.674281	553.373155	-421.593924	NaN	NaN	NaN	66.632235	581.752954	-371.990502	207.488590	308.185356	-348.731519	149.027056	382.556389	-302.444650	130.690787	394.584710	-429.596343	-212.879412	946.387721	-229.288077	-5.863614	84.111000	-435.093556	-11.341337	80.994129	-34.404129	
1253	6.2650	771.178599	1396.491853	-62.648536	764.703167	1428.571708	-374.938718	723.080735	1500.956424	-211.164177	700.532887	1326.885992	-221.751433	619.955480	1173.921759	68.108776	747.121230	945.907121	-29.424771	667.529687	1187.776114	-496.106114	761.291311	923.595734	-408.192164	161.492207	1293.461094	-220.394848	343.447235	1307.874439	-396.426336	327.575496	1289.783859	-29.855594	351.677862	1233.290514	-356.738688	346.775973	1216.386347	-77.459807	194.084776	1337.115224	-167.678248	201.970154	1341.586045	-250.202099	259.807188	1186.492691	-26.160765	279.151140	1209.665423	-423.938698	328.293311	1033.876263	-16.402219	391.213126	971.230729	-20.805006	416.828026	890.470209	-32.427313	423.092181	990.667392	-27.060025	464.808791	773.522207	-65.900707	469.935194	761.895578	-182.169079	403.523488	616.475195	-38.556828	395.085982	528.559636	-52.918841	343.314118	456.952105	-55.080743	424.013091	520.897476	-77.597438	284.526861	339.347208	-72.622468	310.906476	345.005558	-157.903301	215.209495	306.181774	-106.982950	520.590077	238.948907	-110.825769	400.923821	249.909286	-38.343372	428.926250	260.762111	-152.690868	359.997581	1081.920427	-456.786296	424.045377	1024.129626	-466.935933	454.077517	1041.893478	-456.205623	450.290960	939.825823	-478.796085	515.533629	828.242254	-477.929126	521.874691	804.916672	-348.866499	365.433109	731.742772	-488.670964	316.123960	666.200867	-465.864251	233.435380	631.703484	-450.527273	339.344702	640.767069	-446.441601	131.991501	563.269697	-422.337160	NaN	NaN	NaN	67.144364	590.683544	-372.444942	213.647754	320.570595	-348.858999	153.221583	393.504224	-302.251078	134.936201	404.774059	-429.612973	-212.751812	946.373022	-229.274828	-5.810262	84.082324	-435.059550	-11.017570	80.613939	-34.395740	
1254	6.2700	773.372864	1393.423373	-64.800468	763.465874	1428.047470	-377.009372	724.026166	1499.758405	-212.102090	701.570083	1325.202580	-223.995714	622.206272	1172.658334	68.035033	747.420723	944.433498	-29.426023	666.964736	1186.247867	-497.792750	761.348030	923.462249	-407.988796	161.927410	1291.483781	-219.025917	343.614224	1306.047720	-395.363132	328.906715	1286.084530	-28.877727	351.748420	1231.726507	-355.693639	347.785385	1212.474696	-76.696905	195.030090	1334.643868	-166.511265	201.813866	1339.802255	-252.678744	259.681324	1182.361456	-25.940615	280.204370	1209.116239	-423.372520	325.247451	1029.008803	-16.609763	386.897822	965.105468	-21.171379	410.882722	883.916042	-33.363367	418.531841	983.780493	-27.611500	457.540503	766.548252	-67.045768	461.790449	755.084815	-182.718132	397.024815	608.925750	-38.948024	389.244773	521.027157	-53.146153	337.952686	448.934516	-54.902303	418.050921	513.451229	-78.047253	280.059653	330.935499	-72.537718	306.179753	336.272974	-157.206283	210.646899	299.200367	-105.851891	515.422622	228.001626	-111.009647	396.039434	240.109130	-38.289191	424.150924	251.116491	-152.404110	362.721089	1084.194451	-457.782794	427.984790	1027.746500	-468.136470	457.392865	1045.388275	-455.651971	455.760227	944.088423	-480.859033	521.055455	833.269322	-480.661849	526.157270	807.947163	-353.142800	369.976249	738.360673	-490.883919	319.606571	673.662629	-467.576390	236.371856	640.515788	-452.037971	342.416714	648.008351	-448.095760	133.851933	572.879136	-423.039218	NaN	NaN	NaN	68.280995	599.264165	-373.018721	220.360242	332.074350	-348.215770	158.556968	404.585269	-302.506924	139.839549	414.954391	-429.915855	-212.742823	946.332891	-229.329626	-5.786942	84.077436	-435.013958	-11.025052	80.591037	-34.384892	
